<?xml version="1.0" encoding="UTF-8"?>
<svg id="Capa_2" data-name="Capa 2" xmlns="http://www.w3.org/2000/svg" viewBox="0 0 87.96 29.8">
  <defs>
    <style>
      .cls-1 {
        fill: #fff;
        stroke-width: 0px;
      }
    </style>
  </defs>
  <g id="Capa_1-2" data-name="Capa 1">
    <g>
      <path class="cls-1" d="m4.66,15.75c1.16.57,2.53.86,4.1.86,1.38,0,2.63-.22,3.76-.65s2.12-1.17,2.99-2.21l-2.57-2.53c-.54.63-1.13,1.08-1.77,1.36-.64.28-1.3.42-1.99.42-.78,0-1.45-.14-2.01-.43-.56-.29-1-.69-1.3-1.21-.3-.52-.45-1.12-.45-1.81,0-.76.12-1.47.35-2.12s.57-1.22,1.01-1.7c.44-.48.96-.86,1.57-1.12.61-.26,1.28-.4,2.03-.4s1.45.15,2.01.46c.56.31,1.02.75,1.37,1.34l3.14-2.5c-.54-.94-1.36-1.65-2.46-2.15-1.1-.5-2.36-.75-3.78-.75s-2.74.23-3.92.68c-1.18.45-2.19,1.09-3.04,1.92s-1.51,1.8-1.98,2.93c-.47,1.13-.7,2.36-.7,3.69s.31,2.51.94,3.53,1.53,1.81,2.69,2.38Z"/>
      <polygon class="cls-1" points="28.26 16.3 28.96 12.85 21.63 12.85 24 .92 19.65 .92 16.57 16.3 28.26 16.3"/>
      <path class="cls-1" d="m32.5,16.5c.48,0,.93-.11,1.33-.34.4-.23.72-.54.97-.93s.36-.86.36-1.38c0-.67-.22-1.22-.65-1.65-.43-.42-1-.64-1.7-.64s-1.36.24-1.89.72c-.53.48-.79,1.13-.79,1.93,0,.66.22,1.2.66,1.64.44.43,1.01.65,1.71.65Z"/>
      <path class="cls-1" d="m37.97,11.88c-.19.97-.15,1.8.13,2.49.28.7.75,1.22,1.41,1.58.66.36,1.45.54,2.37.54.56,0,1.1-.06,1.64-.17.53-.11,1.02-.29,1.46-.54l-.53-2.88c-.21.12-.41.21-.62.26-.21.06-.42.09-.64.09-.42,0-.73-.12-.9-.36-.18-.24-.23-.59-.15-1.04l.78-3.91h2.71l.61-3.12h-2.7l.62-3.1h-4.17l-.62,3.1h-1.73l-.64,3.12h1.75l-.78,3.93Z"/>
      <path class="cls-1" d="m49.46,15.83c.94.45,2.05.67,3.33.67.89,0,1.77-.12,2.65-.35.87-.23,1.68-.63,2.43-1.19l-1.74-2.61c-.38.31-.82.55-1.33.71-.5.17-1.02.25-1.55.25-.91,0-1.59-.19-2.04-.58-.36-.31-.57-.76-.65-1.35h8.73c.07-.31.13-.62.18-.94s.07-.66.07-1.01c0-1.04-.24-1.95-.71-2.73-.48-.78-1.15-1.39-2.02-1.83-.87-.44-1.91-.66-3.13-.66-1.44,0-2.69.3-3.78.9-1.08.6-1.93,1.42-2.53,2.45-.6,1.03-.9,2.21-.9,3.53,0,1.1.26,2.05.79,2.87.53.81,1.26,1.44,2.21,1.89Zm1.38-6.79c.21-.58.53-1.04.97-1.37.43-.34.98-.51,1.66-.51.53,0,.97.11,1.33.32s.62.51.77.9c.09.23.12.51.11.8h-4.87s.02-.1.04-.14Z"/>
      <path class="cls-1" d="m63.42,15.81c.94.45,2.04.68,3.32.68s2.47-.27,3.5-.81c1.03-.54,1.83-1.3,2.41-2.26l-3.05-1.84c-.31.56-.68.96-1.11,1.2-.43.24-.92.36-1.46.36-.76,0-1.34-.21-1.73-.64-.4-.42-.59-.98-.59-1.67s.12-1.23.37-1.71c.25-.48.6-.87,1.04-1.15.45-.29.95-.43,1.5-.43.51,0,.97.12,1.37.37s.71.65.93,1.21l3.56-1.69c-.44-1.01-1.15-1.8-2.14-2.37-.99-.57-2.16-.86-3.5-.86-1.44,0-2.71.3-3.82.9-1.11.6-1.98,1.42-2.61,2.45-.63,1.03-.94,2.21-.94,3.53,0,1.08.26,2.03.78,2.84.52.81,1.25,1.45,2.19,1.9Z"/>
      <path class="cls-1" d="m77.44,16.3l1.19-5.89c.19-.91.53-1.58,1.01-2.02.48-.44,1.08-.66,1.78-.66s1.16.21,1.42.61c.26.41.3,1,.14,1.76l-1.23,6.19h4.17l1.32-6.59c.25-1.22.22-2.23-.09-3.04-.31-.81-.82-1.43-1.53-1.84-.71-.42-1.56-.63-2.54-.63-.88,0-1.74.21-2.58.61-.32.15-.61.35-.89.58l1.07-5.39h-4.17l-3.25,16.3h4.17Z"/>
      <path class="cls-1" d="m6.08,20.13L0,29.61h2.83l1.09-1.84h4.04l.38,1.84h2.67l-2.29-9.48h-2.64Zm-.98,5.66l1.82-3.07.63,3.07h-2.46Z"/>
      <polygon class="cls-1" points="25.37 20.13 22.15 26.27 21.47 20.13 18.99 20.13 15.79 26.19 15.06 20.13 12.42 20.13 13.58 29.61 16.47 29.61 19.49 23.89 20.18 29.61 23.05 29.61 28.02 20.13 25.37 20.13"/>
      <path class="cls-1" d="m31.71,20.13l-6.08,9.48h2.83l1.09-1.84h4.04l.38,1.84h2.67l-2.29-9.48h-2.64Zm-.98,5.66l1.82-3.07.63,3.07h-2.46Z"/>
      <path class="cls-1" d="m43.35,20.13h-4.05l-1.9,9.48h2.68l.5-2.52h1.35l1.41,2.52h2.8l-1.62-2.84c.14-.05.29-.1.42-.16.7-.33,1.25-.78,1.63-1.37.38-.59.58-1.28.58-2.08,0-.95-.33-1.69-1-2.22-.66-.53-1.6-.8-2.82-.8Zm.62,4.47c-.33.28-.79.42-1.38.42h-1.59l.56-2.78h1.41c.47,0,.84.09,1.1.28.26.19.39.48.39.88,0,.51-.16.91-.49,1.19Z"/>
      <path class="cls-1" d="m57.63,21.99c-.38-.59-.92-1.05-1.63-1.37-.71-.33-1.56-.49-2.55-.49h-4.12l-1.9,9.48h4.85c.88,0,1.67-.13,2.4-.39.72-.26,1.35-.63,1.87-1.11.52-.48.93-1.06,1.22-1.73.29-.67.43-1.43.43-2.27s-.19-1.53-.57-2.12Zm-2.51,3.91c-.24.48-.6.86-1.06,1.14-.46.28-1.03.42-1.71.42h-1.81l1.03-5.2h1.57c.51,0,.95.08,1.29.24.35.16.61.39.79.68.18.3.26.66.26,1.08,0,.6-.12,1.15-.37,1.63Z"/>
      <path class="cls-1" d="m65.81,24.69c-.28-.19-.58-.33-.91-.45-.33-.11-.65-.21-.98-.3-.33-.09-.63-.17-.91-.25-.28-.08-.49-.18-.66-.3s-.24-.27-.24-.45c0-.17.07-.33.2-.47.13-.14.32-.25.58-.33s.57-.12.93-.12c.47,0,.93.06,1.38.18.45.12.86.3,1.23.53l.98-1.99c-.42-.26-.93-.46-1.52-.6-.59-.14-1.22-.21-1.9-.21-.93,0-1.74.14-2.42.42-.68.28-1.21.67-1.58,1.18s-.56,1.1-.56,1.79c0,.42.08.78.25,1.07s.39.53.66.71c.27.19.57.34.9.46s.66.23.99.31.63.17.9.25c.27.08.49.18.66.29s.25.26.25.45c0,.17-.06.32-.19.45s-.31.22-.56.29c-.24.07-.54.1-.88.1-.36,0-.72-.04-1.08-.11-.36-.07-.72-.18-1.06-.32s-.68-.31-1.01-.51l-1.06,2c.29.19.64.36,1.04.52.41.16.86.28,1.35.37.5.09,1.02.13,1.56.13.93,0,1.74-.14,2.42-.42.69-.28,1.21-.67,1.58-1.18.37-.51.56-1.1.56-1.77,0-.42-.08-.76-.24-1.04s-.38-.51-.66-.7Z"/>
      <path class="cls-1" d="m68.99,26.68c-.45,0-.84.15-1.17.45-.32.3-.49.7-.49,1.19,0,.41.14.74.41,1.01.27.27.62.4,1.06.4.3,0,.57-.07.82-.21.25-.14.45-.33.6-.58s.22-.53.22-.85c0-.42-.13-.75-.4-1.02-.27-.26-.62-.39-1.05-.39Z"/>
      <path class="cls-1" d="m77.35,25.94c.57-.43,1.01-.83,1.33-1.2.32-.37.55-.72.68-1.08.14-.35.2-.72.2-1.1,0-.51-.15-.97-.44-1.36-.29-.39-.7-.7-1.23-.93-.53-.23-1.14-.34-1.82-.34-.87,0-1.65.17-2.34.52s-1.23.81-1.61,1.4l1.79,1.18c.24-.3.52-.53.82-.7.3-.17.62-.25.94-.25.37,0,.65.08.85.24s.3.38.3.64c0,.17-.04.34-.11.51-.08.17-.21.35-.39.54-.18.19-.43.42-.76.68l-4.14,3.22-.34,1.68h7.38l.43-2.13h-3.54l1.99-1.54Z"/>
      <path class="cls-1" d="m87.96,20.13h-6.85l-.42,2.07h3.71l-2.03,1.83-.34,1.69h1.15c.43,0,.75.07.96.2s.3.33.3.6c0,.23-.07.44-.2.6s-.32.29-.58.38-.56.13-.93.13c-.44,0-.88-.07-1.32-.2-.44-.14-.83-.33-1.17-.58l-1.25,1.91c.46.34,1,.6,1.61.78.61.18,1.26.26,1.95.26.89,0,1.68-.15,2.37-.45s1.24-.71,1.63-1.23c.39-.52.59-1.11.59-1.77,0-.51-.13-.96-.39-1.34-.26-.38-.62-.67-1.1-.87-.14-.06-.31-.09-.47-.14l2.44-2.2.33-1.68Z"/>
    </g>
  </g>
</svg>