<?xml version="1.0" encoding="utf-8"?>
<!-- Generator: Adobe Illustrator 28.1.0, SVG Export Plug-In . SVG Version: 6.00 Build 0)  -->
<svg version="1.1" id="Capa_1" xmlns="http://www.w3.org/2000/svg" xmlns:xlink="http://www.w3.org/1999/xlink" x="0px" y="0px"
	 viewBox="0 0 28 21" style="enable-background:new 0 0 28 21;" xml:space="preserve">
<g id="Capa_2_00000158023952525331845770000013955521865464275892_">
	<g id="Capa_1-2">
		<path d="M1.1,0h25.8C27.5,0,28,0.5,28,1.1v2.8C28,4.5,27.5,5,26.9,5H1.1C0.5,5,0,4.5,0,3.9V1.1C0,0.5,0.5,0,1.1,0z"/>
		<path d="M1.1,8h25.8C27.5,8,28,8.5,28,9.1v2.8c0,0.6-0.5,1.1-1.1,1.1H1.1C0.5,13,0,12.5,0,11.9V9.1C0,8.5,0.5,8,1.1,8z"/>
		<path d="M1.1,16h25.8c0.6,0,1.1,0.5,1.1,1.1v2.8c0,0.6-0.5,1.1-1.1,1.1H1.1C0.5,21,0,20.5,0,19.9v-2.8C0,16.5,0.5,16,1.1,16z"/>
	</g>
</g>
</svg>
